<svg id="検索用の虫眼鏡アイコン_7" data-name="検索用の虫眼鏡アイコン 7" xmlns="http://www.w3.org/2000/svg" width="13.694" height="13.717" viewBox="0 0 13.694 13.717">
  <path id="パス_26" data-name="パス 26" d="M13.931,12.61,10.065,8.733a5.378,5.378,0,0,0,.5-.751l.013-.026c.064-.119.125-.24.181-.365.024-.055.044-.111.067-.167.033-.081.067-.161.1-.244.021-.059.036-.12.055-.179.026-.084.054-.166.076-.252.009-.036.015-.072.024-.109a5.364,5.364,0,0,0-.252-3.285l-.009-.022c-.03-.072-.061-.142-.094-.212l-.013-.028c-.034-.072-.07-.143-.107-.214l-.01-.019A5.386,5.386,0,0,0,4.559.152L4.483.168c-.09.023-.178.052-.267.08-.054.017-.11.031-.164.05-.089.031-.176.068-.262.1-.049.02-.1.037-.148.059A5.395,5.395,0,0,0,1.085,2.813l0,.008c-.068.125-.132.252-.19.383-.022.049-.039.1-.059.148-.036.087-.073.174-.1.264-.019.053-.033.108-.049.161-.028.09-.057.178-.081.27-.008.031-.013.063-.02.094a5.392,5.392,0,0,0,6.542,6.5l.041-.009c.1-.026.2-.058.3-.089.044-.014.09-.026.133-.041.09-.031.177-.068.265-.1.049-.02.1-.038.149-.059.1-.046.2-.1.3-.149.031-.016.062-.029.092-.046a5.4,5.4,0,0,0,.747-.492l3.868,3.879a.647.647,0,0,0,.457.191.649.649,0,0,0,.459-1.107ZM9.872,5.4A4.054,4.054,0,0,1,5.818,9.446,4.052,4.052,0,0,1,1.775,5.392,4.054,4.054,0,0,1,5.829,1.349,4.052,4.052,0,0,1,9.872,5.4Z" transform="translate(-0.426 0)" fill="#10479b"/>
</svg>
