<svg xmlns="http://www.w3.org/2000/svg" width="32" height="32"><path fill="none" d="M0 0h32v32H0z"/><path d="M31.394 11.925a.376.376 0 01.606.294V25a3 3 0 01-3 3H3a3 3 0 01-3-3V12.225a.374.374 0 01.606-.294c1.4 1.088 3.256 2.469 9.631 7.1 1.319.963 3.544 2.988 5.762 2.975 2.231.019 4.5-2.05 5.769-2.975 6.376-4.631 8.226-6.018 9.626-7.106zM16 20c1.45.025 3.538-1.825 4.587-2.588 8.294-6.019 8.925-6.544 10.837-8.044A1.5 1.5 0 0032 8.188V7a3 3 0 00-3-3H3a3 3 0 00-3 3v1.188a1.5 1.5 0 00.575 1.181c1.912 1.494 2.544 2.025 10.837 8.044 1.05.762 3.138 2.612 4.588 2.587z" fill="#232323"/></svg>